<svg width="48" height="48" viewBox="0 0 48 48" fill="none" xmlns="http://www.w3.org/2000/svg">
<path d="M4 42.3864C5.37048 44.4886 7.14208 44.4886 8.54598 42.3864C13.0597 35.4816 17.3591 47.3528 20.546 42.4642C25.406 35.1388 28.9016 47.8436 32.546 42.3864C37.2984 35.1164 40.259 47.1552 44 43.1684" stroke="#B5BBC3" stroke-width="3" stroke-linecap="round"/>
<path d="M7.14456 34L4.14962 25.2914C3.60746 23.7148 4.60566 22 6.06546 22H41.7164C47.9044 22 39.9886 34 35.9932 34" stroke="#B5BBC3" stroke-width="3" stroke-linecap="round" stroke-linejoin="round"/>
<path d="M36 22L30.402 15.0024C28.8838 13.1047 26.5852 12 24.155 12H16C13.7909 12 12 13.7909 12 16V22" stroke="#B5BBC3" stroke-width="3" stroke-linecap="round" stroke-linejoin="round"/>
<path d="M20 12V6C20 4.89544 19.1046 4 18 4H16" stroke="#B5BBC3" stroke-width="3" stroke-linecap="round" stroke-linejoin="round"/>
</svg>
