<svg width="48" height="48" viewBox="0 0 48 48" fill="none" xmlns="http://www.w3.org/2000/svg">
<path d="M4 18V30" stroke="#64748B" stroke-width="3" stroke-linecap="round" stroke-linejoin="round"/>
<path d="M10 27.7186V24C10 20.2288 10 18.3431 11.1716 17.1716C12.3431 16 14.2288 16 18 16H26C27.8638 16 28.7956 16 29.5308 16.3045C30.5108 16.7105 31.2896 17.4892 31.6956 18.4693C32 19.2044 32 20.1362 32 22H38V19C38 18.0681 38 17.6022 38.1522 17.2346C38.3552 16.7446 38.7446 16.3552 39.2346 16.1522C39.6022 16 40.0682 16 41 16C41.9318 16 42.3978 16 42.7654 16.1522C43.2554 16.3552 43.6448 16.7446 43.8478 17.2346C44 17.6022 44 18.0681 44 19V33C44 33.9318 44 34.3978 43.8478 34.7654C43.6448 35.2554 43.2554 35.6448 42.7654 35.8478C42.3978 36 41.9318 36 41 36C40.0682 36 39.6022 36 39.2346 35.8478C38.7446 35.6448 38.3552 35.2554 38.1522 34.7654C38 34.3978 38 33.9318 38 33V28H32C32 31.7712 32 33.6568 30.8284 34.8284C29.6568 36 27.7712 36 24 36H18.4222C17.22 36 16.6188 36 16.052 35.8284C15.4851 35.6568 14.9849 35.3232 13.9846 34.6564L13.5624 34.375C11.8185 33.2124 10.9466 32.631 10.4733 31.7466C10 30.8624 10 29.8144 10 27.7186Z" stroke="#64748B" stroke-width="3" stroke-linecap="round" stroke-linejoin="round"/>
<path d="M10 24H4" stroke="#64748B" stroke-width="3" stroke-linecap="round" stroke-linejoin="round"/>
<path d="M21 16V10" stroke="#64748B" stroke-width="3" stroke-linecap="round" stroke-linejoin="round"/>
<path d="M14 10H28" stroke="#64748B" stroke-width="3" stroke-linecap="round" stroke-linejoin="round"/>
</svg>
