<svg width="48" height="48" viewBox="0 0 48 48" fill="none" xmlns="http://www.w3.org/2000/svg">
<path d="M25 38V44" stroke="#B5BBC3" stroke-width="3" stroke-linecap="round" stroke-linejoin="round"/>
<path d="M21 44H29" stroke="#B5BBC3" stroke-width="3" stroke-linecap="round" stroke-linejoin="round"/>
<path d="M27 32C19.268 32 13 25.732 13 18C13 10.268 19.268 4 27 4C34.732 4 41 10.268 41 18C41 25.732 34.732 32 27 32Z" stroke="#B5BBC3" stroke-width="3" stroke-linecap="round"/>
<path d="M17 8C18.3086 8.077 18.9847 8.71798 20.147 9.94602C22.2462 12.1641 24.3454 12.3492 25.7448 11.6098C27.844 10.5008 26.08 8.70442 28.5438 7.72818C30.1496 7.0919 30.3736 5.36052 29.4798 4" stroke="#B5BBC3" stroke-width="3" stroke-linejoin="round"/>
<path d="M40 20C37 20 36.4676 22.4936 34 22C29 21 27.5832 22.1178 27.5832 24.5022C27.5832 26.8864 27.5832 26.8864 26.5434 28.6746C25.867 29.8378 25.6306 31.0008 26.9788 32" stroke="#B5BBC3" stroke-width="3" stroke-linejoin="round"/>
<path d="M13 4C9.29728 7.5999 7 12.6164 7 18.165C7 29.1196 15.9543 38 27 38C32.451 38 37.3924 35.8374 41 32.33" stroke="#B5BBC3" stroke-width="3" stroke-linecap="round"/>
</svg>
