<svg width="48" height="48" viewBox="0 0 48 48" fill="none" xmlns="http://www.w3.org/2000/svg">
<path d="M5 6.00391H43" stroke="#B5BBC3" stroke-width="3" stroke-linecap="round" stroke-linejoin="round"/>
<path d="M9 6.00391V28.002C9 32.6596 9.86118 34.1806 13.855 36.577L19.884 40.1944C21.8894 41.3974 22.892 41.9992 24 41.9992C25.108 41.9992 26.1106 41.3974 28.116 40.1944L34.145 36.577C38.1388 34.1806 39 32.6596 39 28.002V6.00391" stroke="#B5BBC3" stroke-width="3" stroke-linecap="round" stroke-linejoin="round"/>
<path d="M25.2091 16.0109L26.4409 18.495C26.6089 18.8408 27.0569 19.1725 27.4347 19.236L29.6675 19.61C31.0953 19.85 31.4313 20.8944 30.4025 21.9248L28.6667 23.6748C28.3727 23.9712 28.2117 24.543 28.3027 24.9522L28.7997 27.1188C29.1915 28.8336 28.2887 29.497 26.7839 28.6008L24.6911 27.3516C24.3131 27.1258 23.6901 27.1258 23.3053 27.3516L21.2125 28.6008C19.7146 29.497 18.8047 28.8266 19.1966 27.1188L19.6936 24.9522C19.7846 24.543 19.6236 23.9712 19.3296 23.6748L17.5938 21.9248C16.5719 20.8944 16.9009 19.85 18.3287 19.61L20.5615 19.236C20.9325 19.1725 21.3805 18.8408 21.5485 18.495L22.7803 16.0109C23.4523 14.663 24.5441 14.663 25.2091 16.0109Z" stroke="#B5BBC3" stroke-width="3" stroke-linecap="round" stroke-linejoin="round"/>
</svg>
