<svg width="48" height="48" viewBox="0 0 48 48" fill="none" xmlns="http://www.w3.org/2000/svg">
<path d="M5 6.00391H43" stroke="#64748B" stroke-width="3" stroke-linecap="round" stroke-linejoin="round"/>
<path d="M9 6.00391V28.002C9 32.6596 9.86118 34.1806 13.855 36.577L19.884 40.1944C21.8894 41.3974 22.892 41.9992 24 41.9992C25.108 41.9992 26.1106 41.3974 28.116 40.1944L34.145 36.577C38.1388 34.1806 39 32.6596 39 28.002V6.00391" stroke="#64748B" stroke-width="3" stroke-linecap="round" stroke-linejoin="round"/>
<path d="M25.2089 16.0109L26.4407 18.495C26.6087 18.8408 27.0567 19.1725 27.4345 19.236L29.6673 19.61C31.0951 19.85 31.4311 20.8944 30.4023 21.9248L28.6665 23.6748C28.3725 23.9712 28.2115 24.543 28.3025 24.9522L28.7995 27.1188C29.1913 28.8336 28.2885 29.497 26.7837 28.6008L24.6909 27.3516C24.3129 27.1258 23.6899 27.1258 23.3051 27.3516L21.2123 28.6008C19.7145 29.497 18.8046 28.8266 19.1965 27.1188L19.6935 24.9522C19.7845 24.543 19.6235 23.9712 19.3295 23.6748L17.5937 21.9248C16.5718 20.8944 16.9008 19.85 18.3286 19.61L20.5613 19.236C20.9323 19.1725 21.3803 18.8408 21.5483 18.495L22.7801 16.0109C23.4521 14.663 24.5439 14.663 25.2089 16.0109Z" stroke="#64748B" stroke-width="3" stroke-linecap="round" stroke-linejoin="round"/>
</svg>
