<svg width="48" height="48" viewBox="0 0 48 48" fill="none" xmlns="http://www.w3.org/2000/svg">
<path d="M20.039 16C18.6509 14.1349 16.2857 11.5241 17.2077 8.95262C17.8211 7.24172 22.0134 4 24 4C25.9866 4 30.1788 7.24172 30.7924 8.95262C31.7144 11.5241 29.349 14.1349 27.961 16" stroke="#B5BBC3" stroke-width="3" stroke-linecap="round" stroke-linejoin="round"/>
<path d="M16 16H32" stroke="#B5BBC3" stroke-width="3" stroke-linecap="round" stroke-linejoin="round"/>
<path d="M16 26H32" stroke="#B5BBC3" stroke-width="3" stroke-linejoin="round"/>
<path d="M15 36H33" stroke="#B5BBC3" stroke-width="3" stroke-linejoin="round"/>
<path d="M19 16L14 44M29 16L34 44" stroke="#B5BBC3" stroke-width="3" stroke-linecap="round" stroke-linejoin="round"/>
<path d="M10 44H38" stroke="#B5BBC3" stroke-width="3" stroke-linecap="round" stroke-linejoin="round"/>
<path d="M38 15L42 14M38 21L42 22" stroke="#B5BBC3" stroke-width="3" stroke-linecap="round" stroke-linejoin="round"/>
<path d="M10 15L6 14M10 21L6 22" stroke="#B5BBC3" stroke-width="3" stroke-linecap="round" stroke-linejoin="round"/>
</svg>
