<svg width="48" height="48" viewBox="0 0 48 48" fill="none" xmlns="http://www.w3.org/2000/svg">
<path d="M36 20.1641C39.1068 20.2579 40.96 20.6049 42.2426 21.8893C44 23.6493 44 26.4817 44 32.1469C44 37.8119 44 40.6443 42.2426 42.4043C40.4852 44.1641 37.6568 44.1641 32 44.1641H16C10.3431 44.1641 7.51472 44.1641 5.75736 42.4043C4 40.6443 4 37.8119 4 32.1469C4 26.4817 4 23.6493 5.75736 21.8893C7.03996 20.6049 8.8931 20.2579 12 20.1641" stroke="#64748B" stroke-width="3" stroke-linecap="round" stroke-linejoin="round"/>
<path d="M38 32.1641H34M26 32.1641H22M14 32.1641H10" stroke="#64748B" stroke-width="3" stroke-linecap="round" stroke-linejoin="round"/>
<path d="M24 4.16406C19.8579 4.16406 16.5 7.42014 16.5 11.4367C16.5 13.7334 17.4375 15.5191 19.3125 17.1142C20.6342 18.2386 23.0388 20.6504 24 22.164C25.01 20.6804 27.3658 18.2386 28.6876 17.1142C30.5624 15.5191 31.5 13.7334 31.5 11.4367C31.5 7.42014 28.1422 4.16406 24 4.16406Z" stroke="#64748B" stroke-width="3" stroke-linecap="round" stroke-linejoin="round"/>
<path d="M24.2695 11.1641H24.0195M24.5195 11.1641C24.5195 11.4402 24.2955 11.6641 24.0195 11.6641C23.7433 11.6641 23.5195 11.4402 23.5195 11.1641C23.5195 10.8879 23.7433 10.6641 24.0195 10.6641C24.2955 10.6641 24.5195 10.8879 24.5195 11.1641Z" stroke="#64748B" stroke-width="3" stroke-linecap="round" stroke-linejoin="round"/>
</svg>
