<svg width="48" height="48" viewBox="0 0 48 48" fill="none" xmlns="http://www.w3.org/2000/svg">
<path d="M4 26C4 24.1144 4 23.1716 4.58578 22.5858C5.17158 22 6.11438 22 8 22C9.88562 22 10.8284 22 11.4142 22.5858C12 23.1716 12 24.1144 12 26C12 27.8856 12 28.8284 11.4142 29.4142C10.8284 30 9.88562 30 8 30C6.11438 30 5.17158 30 4.58578 29.4142C4 28.8284 4 27.8856 4 26Z" stroke="#B5BBC3" stroke-width="3"/>
<path d="M36 26C36 24.1144 36 23.1716 36.5858 22.5858C37.1716 22 38.1144 22 40 22C41.8856 22 42.8284 22 43.4142 22.5858C44 23.1716 44 24.1144 44 26C44 27.8856 44 28.8284 43.4142 29.4142C42.8284 30 41.8856 30 40 30C38.1144 30 37.1716 30 36.5858 29.4142C36 28.8284 36 27.8856 36 26Z" stroke="#B5BBC3" stroke-width="3"/>
<path d="M24 13.9998V27.9998M24 37.9998V43.9998M8 22V18C8 11.3813 9.38134 10 16 10M40 22V18C40 11.3813 38.6186 10 32 10" stroke="#B5BBC3" stroke-width="3" stroke-linecap="round" stroke-linejoin="round"/>
<path d="M29 33C29 35.7614 26.7614 38 24 38C21.2386 38 19 35.7614 19 33C19 30.2386 21.2386 28 24 28C26.7614 28 29 30.2386 29 33Z" stroke="#B5BBC3" stroke-width="3"/>
<path d="M20 4H28C31.6304 4 32 5.84988 32 9C32 12.1501 31.6304 14 28 14H20C16.3696 14 16 12.1501 16 9C16 5.84988 16.3696 4 20 4Z" stroke="#B5BBC3" stroke-width="3"/>
</svg>
